<svg width="100" height="100" viewBox="0 0 100 100" fill="none" xmlns="http://www.w3.org/2000/svg" role="img" aria-label="FavoDigital honeycomb cell">
  <defs>
    <linearGradient id="aFill" x1="28" y1="6" x2="74" y2="96" gradientUnits="userSpaceOnUse">
      <stop offset="0" stop-color="#FFC861"/><stop offset="0.42" stop-color="#F5A623"/><stop offset="1" stop-color="#C8881F"/>
    </linearGradient>
    <linearGradient id="aGloss" x1="50" y1="4" x2="50" y2="58" gradientUnits="userSpaceOnUse">
      <stop offset="0" stop-color="#FFFFFF" stop-opacity="0.62"/><stop offset="0.55" stop-color="#FFFFFF" stop-opacity="0.05"/><stop offset="1" stop-color="#FFFFFF" stop-opacity="0"/>
    </linearGradient>
    <linearGradient id="aShade" x1="50" y1="44" x2="50" y2="96" gradientUnits="userSpaceOnUse">
      <stop offset="0" stop-color="#6E3E0A" stop-opacity="0"/><stop offset="1" stop-color="#5A3006" stop-opacity="0.5"/>
    </linearGradient>
    <radialGradient id="aSpec" cx="40" cy="27" r="22" gradientUnits="userSpaceOnUse">
      <stop offset="0" stop-color="#FFFFFF" stop-opacity="0.78"/><stop offset="0.55" stop-color="#FFFFFF" stop-opacity="0.12"/><stop offset="1" stop-color="#FFFFFF" stop-opacity="0"/>
    </radialGradient>
    <linearGradient id="aRim" x1="50" y1="4" x2="50" y2="96" gradientUnits="userSpaceOnUse">
      <stop offset="0" stop-color="#FFE6B0"/><stop offset="0.45" stop-color="#FFC861"/><stop offset="1" stop-color="#97640F"/>
    </linearGradient>
    <clipPath id="aClip"><path d="M50 4 L89.8 27 L89.8 73 L50 96 L10.2 73 L10.2 27 Z"/></clipPath>
    <filter id="aGlow" x="-40%" y="-40%" width="180%" height="180%"><feGaussianBlur stdDeviation="3"/></filter>
  </defs>
  <path d="M50 4 L89.8 27 L89.8 73 L50 96 L10.2 73 L10.2 27 Z" fill="#F5A623" opacity="0.5" filter="url(#aGlow)"/>
  <path d="M50 4 L89.8 27 L89.8 73 L50 96 L10.2 73 L10.2 27 Z" fill="url(#aFill)"/>
  <g clip-path="url(#aClip)">
    <path d="M50 4 L89.8 27 L89.8 73 L50 96 L10.2 73 L10.2 27 Z" fill="url(#aShade)"/>
    <path d="M50 4 L89.8 27 L89.8 73 L50 96 L10.2 73 L10.2 27 Z" fill="url(#aGloss)"/>
    <ellipse cx="40" cy="27" rx="21" ry="13" fill="url(#aSpec)"/>
  </g>
  <path d="M50 4 L89.8 27 L89.8 73 L50 96 L10.2 73 L10.2 27 Z" fill="none" stroke="url(#aRim)" stroke-width="2.4" stroke-linejoin="round"/>
</svg>
